<?xml version="1.0" standalone="no"?>
<!DOCTYPE svg PUBLIC "-//W3C//DTD SVG 20010904//EN"
 "http://www.w3.org/TR/2001/REC-SVG-20010904/DTD/svg10.dtd">
<svg version="1.0" xmlns="http://www.w3.org/2000/svg"
 width="50.000000pt" height="50.000000pt" viewBox="0 0 50.000000 50.000000"
 preserveAspectRatio="xMidYMid meet">

<g transform="translate(0.000000,50.000000) scale(0.100000,-0.100000)"
fill="#000000" stroke="none">
<path d="M190 478 c0 -22 31 -23 70 -3 17 9 30 17 30 19 0 2 -22 3 -50 2 -40
-1 -50 -4 -50 -18z"/>
<path d="M195 443 c-38 -8 -71 -16 -73 -18 -2 -2 4 -15 14 -30 11 -18 19 -54
22 -107 l5 -80 41 6 c22 3 65 8 94 12 l54 6 -4 82 c-2 65 -8 87 -26 114 -26
36 -28 36 -127 15z m110 -26 c18 -29 34 -108 28 -142 -5 -25 -6 -26 -110 -40
l-43 -5 0 52 c-1 29 -7 70 -14 91 -16 43 -18 40 54 55 66 14 68 14 85 -11z"/>
<path d="M340 428 c0 -2 9 -27 20 -56 11 -29 20 -66 20 -83 0 -31 0 -31 43
-24 58 9 77 15 77 25 0 11 -140 140 -151 140 -5 0 -9 -1 -9 -2z m120 -129 c0
-6 -52 -20 -57 -15 -1 1 -5 22 -9 46 l-7 45 37 -34 c20 -19 36 -38 36 -42z"/>
<path d="M5 261 c-10 -17 7 -92 22 -98 8 -3 23 -24 34 -46 23 -43 16 -57 -28
-57 -13 0 -23 -4 -23 -8 0 -4 110 -8 245 -8 135 0 245 4 245 8 0 4 -13 8 -29
8 -17 0 -32 4 -35 8 -2 4 8 35 24 67 16 33 32 73 36 89 l7 29 -69 -7 c-57 -6
-72 -12 -87 -32 -17 -22 -25 -24 -103 -24 l-84 0 -20 40 c-20 39 -21 40 -75
40 -29 0 -56 -4 -60 -9z m122 -48 l18 -38 95 -3 c90 -3 96 -2 115 21 14 17 35
27 68 31 56 8 59 -1 26 -67 -41 -81 -88 -113 -128 -88 -7 5 -25 4 -42 -2 -21
-8 -37 -8 -57 -1 -19 7 -35 7 -50 1 -32 -15 -64 3 -87 49 -11 22 -27 46 -36
54 -10 8 -20 30 -24 48 l-7 32 45 0 c42 0 47 -2 64 -37z"/>
<path d="M400 200 c0 -5 9 -10 20 -10 11 0 20 5 20 10 0 6 -9 10 -20 10 -11 0
-20 -4 -20 -10z"/>
<path d="M69 29 c-8 -5 -24 -9 -36 -9 -13 0 -23 -4 -23 -8 0 -4 110 -8 245 -8
135 0 245 4 245 8 0 4 -12 8 -27 8 -16 0 -34 4 -42 9 -7 5 -25 4 -42 -2 -20
-8 -37 -8 -56 -1 -19 7 -37 7 -56 0 -18 -7 -37 -7 -55 0 -18 7 -36 7 -55 0
-19 -7 -37 -7 -56 1 -17 6 -35 7 -42 2z"/>
</g>
</svg>
